<?xml version="1.0" encoding="iso-8859-1"?>
<!-- Generator: Adobe Illustrator 19.0.0, SVG Export Plug-In . SVG Version: 6.00 Build 0)  -->
<svg xmlns="http://www.w3.org/2000/svg" xmlns:xlink="http://www.w3.org/1999/xlink" version="1.1" id="Capa_1" x="0px" y="0px" viewBox="0 0 512 512" style="enable-background:new 0 0 512 512;" xml:space="preserve" width="512px" height="512px">
<g>
	<g>
		<path d="M351.401,260.502c-16.454,0-29.841,13.386-29.841,29.84c0,16.46,13.387,29.851,29.841,29.851    c16.454,0,29.84-13.391,29.84-29.851C381.241,273.888,367.855,260.502,351.401,260.502z M351.4,305.193    c-8.184,0-14.841-6.662-14.841-14.851c0-8.183,6.657-14.84,14.841-14.84c8.183,0,14.84,6.657,14.84,14.84    C366.24,298.529,359.583,305.193,351.4,305.193z" fill="#FFFFFF"/>
	</g>
</g>
<g>
	<g>
		<path d="M231.255,95.238c-0.054-0.182-0.115-0.364-0.184-0.545c-0.035-0.091-0.072-0.181-0.109-0.27    c-11.696-32.01-42.454-54.921-78.462-54.921c-46.042,0-83.5,37.458-83.5,83.5c0,29.083,14.945,54.74,37.559,69.696    c0.256,0.202,0.528,0.389,0.815,0.56c0.113,0.067,0.227,0.131,0.342,0.192c12.949,8.261,28.318,13.052,44.784,13.052    c46.042,0,83.5-37.458,83.5-83.5C236,113.273,234.327,103.928,231.255,95.238z M160,54.91    c23.843,2.608,44.046,17.501,54.126,38.196l-27.751,10.54L160,84.481V54.91z M176.684,115.146l-9.232,28.426H137.55l-9.232-28.426    L152.5,97.573L176.684,115.146z M145,54.91v29.571l-26.606,19.334l-28.436-8.749C99.693,73.354,120.411,57.6,145,54.91z     M84,123.002c0-4.675,0.471-9.241,1.367-13.656l28.102,8.647l10.574,32.556l-15.056,25.321C93.738,163.296,84,144.265,84,123.002z     M152.5,191.502c-11.132,0-21.653-2.669-30.955-7.402l15.179-25.528h32.735l15.841,24.554    C175.553,188.464,164.375,191.502,152.5,191.502z M197.599,174.521l-16.249-25.185l10.276-31.637l27.543-10.461    c1.197,5.062,1.831,10.34,1.831,15.764C221,143.518,211.934,161.956,197.599,174.521z" fill="#FFFFFF"/>
	</g>
</g>
<g>
	<g>
		<path d="M262.5,119.502c-4.143,0-7.5,3.357-7.5,7.5v20c0,4.143,3.357,7.5,7.5,7.5s7.5-3.357,7.5-7.5v-20    C270,122.859,266.643,119.502,262.5,119.502z" fill="#FFFFFF"/>
	</g>
</g>
<g>
	<g>
		<path d="M253.5,46.502c-4.143,0-7.5,3.357-7.5,7.5v29c0,4.143,3.357,7.5,7.5,7.5s7.5-3.357,7.5-7.5v-29    C261,49.859,257.643,46.502,253.5,46.502z" fill="#FFFFFF"/>
	</g>
</g>
<g>
	<g>
		<path d="M55.5,161.502c-4.143,0-7.5,3.357-7.5,7.5v25c0,4.143,3.357,7.5,7.5,7.5s7.5-3.357,7.5-7.5v-25    C63,164.859,59.643,161.502,55.5,161.502z" fill="#FFFFFF"/>
	</g>
</g>
<g>
	<g>
		<path d="M31.5,89.502c-4.143,0-7.5,3.357-7.5,7.5v50c0,4.143,3.357,7.5,7.5,7.5s7.5-3.357,7.5-7.5v-50    C39,92.859,35.643,89.502,31.5,89.502z" fill="#FFFFFF"/>
	</g>
</g>
<g>
	<g>
		<path d="M48.5,39.502c-4.143,0-7.5,3.357-7.5,7.5v15c0,4.143,3.357,7.5,7.5,7.5s7.5-3.357,7.5-7.5v-15    C56,42.859,52.643,39.502,48.5,39.502z" fill="#FFFFFF"/>
	</g>
</g>
<g>
	<g>
		<path d="M156.5,211.502c-4.143,0-7.5,3.357-7.5,7.5v11c0,4.143,3.357,7.5,7.5,7.5s7.5-3.357,7.5-7.5v-11    C164,214.859,160.643,211.502,156.5,211.502z" fill="#FFFFFF"/>
	</g>
</g>
<g>
	<g>
		<path d="M152.5,0.502c-4.143,0-7.5,3.357-7.5,7.5v13c0,4.143,3.357,7.5,7.5,7.5s7.5-3.357,7.5-7.5v-13    C160,3.859,156.643,0.502,152.5,0.502z" fill="#FFFFFF"/>
	</g>
</g>
<g>
	<g>
		<path d="M504.5,380.502h-27.575c-1.349-6.452-3.717-12.899-7.071-19.238c-1.665-3.159-4.616-5.43-8.096-6.229    c-3.477-0.8-7.111-0.045-9.973,2.06l-5.952,4.363l-4.106-3.478c-2.848-2.402-6.577-3.373-10.236-2.666    c-3.641,0.705-6.723,2.985-8.455,6.253c-3.83,7.217-6.239,13.403-7.341,18.936h-43.873c0.117-0.673,0.178-1.364,0.178-2.07    v-12.631h7.43c12.81,0,23.23-10.416,23.23-23.22v-3.831c1.002-0.825,1.943-1.734,2.812-2.724    c4.593-5.231,6.717-12.185,5.833-19.087l-2.463-21.414c-0.475-4.114-4.193-7.06-8.309-6.594c-4.114,0.474-7.066,4.193-6.594,8.309    l2.47,21.468c0.005,0.038,0.01,0.075,0.015,0.113c0.35,2.681-0.44,5.276-2.225,7.309c-1.785,2.033-4.255,3.151-6.959,3.151    H264.723l-21.752-60.486l7.279-0.81c2.433-0.271,4.581-1.713,5.754-3.861l12.981-23.79c22.066,7.39,43.56,11.085,64.348,11.085    c18.709,0,36.846-2.994,54.301-8.981l2.869,24.934c0.474,4.115,4.195,7.058,8.309,6.594c4.115-0.474,7.066-4.193,6.594-8.309    l-5.034-43.754c-0.005-0.035-0.009-0.07-0.014-0.105c-0.671-5.182-3.536-9.833-7.862-12.763c-4.334-2.935-9.726-3.87-14.798-2.569    c-27.817,7.13-65.421,6.343-89.401-1.868c-6.881-2.363-14.499-0.389-19.405,5.029c-0.397,0.438-0.741,0.923-1.024,1.441    L244.71,253.51l-102.407,11.399c-24.265,2.242-42.551,22.288-42.551,46.662v15.42c0,4.175,1.487,8.009,3.96,11v7.41    c0,11.248,9.151,20.399,20.4,20.399h9.729v12.63c0,0.706,0.062,1.397,0.178,2.07H96.376    c-5.463-11.129-13.212-18.481-23.075-21.885c-3.185-1.105-6.681-0.965-9.843,0.391l-8.358,3.578l-12.277-7.476    c-3.97-2.409-8.843-2.662-13.036-0.673c-4.211,1.996-7.113,5.947-7.764,10.575c-0.717,5.128-0.673,9.931,0.146,14.489H7.5    c-4.143,0-7.5,3.357-7.5,7.5v117c0,4.143,3.357,7.5,7.5,7.5h497c4.143,0,7.5-3.357,7.5-7.5V388.002    C512,383.859,508.643,380.502,504.5,380.502z M280.483,219.265c0.843-0.632,1.946-0.82,2.948-0.477    c26.872,9.199,67.167,10.108,97.994,2.209c1.252-0.322,2.203,0.149,2.658,0.458c0.448,0.304,1.22,0.995,1.394,2.231l0.398,3.461    c-34.208,12.595-70.117,12.531-109.584-0.201L280.483,219.265z M227.643,270.503l21.139,58.779h-15.165l-20.62-57.149    L227.643,270.503z M197.667,273.84l20.004,55.442h-15.145l-19.338-53.831L197.667,273.84z M114.75,326.992v-15.42    c0-16.59,12.462-30.231,28.987-31.73c0.051-0.005,0.102-0.01,0.152-0.016l23.973-2.669l18.725,52.125H117.04    C115.777,329.281,114.75,328.255,114.75,326.992z M124.11,350.801c-2.977,0.001-5.4-2.421-5.4-5.399v-1.011h268.749    c-0.827,3.665-4.113,6.41-8.029,6.41H124.11z M357,365.802v9.7h-16.16v-9.7H357z M326.018,380.502h-18.197    c0.117-0.673,0.179-1.364,0.179-2.07v-12.63h17.84v12.63C325.84,379.138,325.902,379.828,326.018,380.502z M293,365.802v9.7    h-16.16v-9.7H293z M262.018,380.502h-18.197c0.117-0.673,0.179-1.364,0.179-2.07v-12.63h17.84v12.63    C261.84,379.138,261.902,379.828,262.018,380.502z M229,365.802v9.7h-16.16v-9.7H229z M198.018,380.502h-18.197    c0.117-0.673,0.179-1.364,0.179-2.07v-12.63h17.84v12.63C197.84,379.138,197.902,379.828,198.018,380.502z M165,365.802v9.7    h-16.16v-9.7H165z M497,496.502H15v-102h17.5c2.601,0,5.015-1.347,6.381-3.559c1.366-2.213,1.489-4.975,0.325-7.3    c-2.234-4.462-3.055-9.181-2.542-14.721l13.936,8.485c2.072,1.262,4.625,1.443,6.853,0.488l11.474-4.913    c6.735,2.526,11.845,8.354,15.607,17.795c1.137,2.853,3.896,4.724,6.967,4.724h331c2.03,0,3.974-0.823,5.387-2.281    c1.413-1.459,2.174-3.428,2.109-5.457c-0.126-3.982,1.457-9.379,4.713-16.071l5.944,5.033c2.646,2.241,6.484,2.375,9.281,0.324    l8.081-5.925c2.765,5.892,4.451,11.802,5.021,17.608c0.376,3.841,3.605,6.769,7.464,6.769H497V496.502z" fill="#FFFFFF"/>
	</g>
</g>
<g>
</g>
<g>
</g>
<g>
</g>
<g>
</g>
<g>
</g>
<g>
</g>
<g>
</g>
<g>
</g>
<g>
</g>
<g>
</g>
<g>
</g>
<g>
</g>
<g>
</g>
<g>
</g>
<g>
</g>
</svg>
