<?xml version="1.0" encoding="iso-8859-1"?>
<!-- Generator: Adobe Illustrator 19.0.0, SVG Export Plug-In . SVG Version: 6.00 Build 0)  -->
<svg xmlns="http://www.w3.org/2000/svg" xmlns:xlink="http://www.w3.org/1999/xlink" version="1.1" id="Capa_1" x="0px" y="0px" viewBox="0 0 512 512" style="enable-background:new 0 0 512 512;" xml:space="preserve" width="512px" height="512px">
<g>
	<g>
		<path d="M394,163.25c-36.803,0-71.604,17.31-93.878,46.5h-19.978l-3.511-17.489c-1.298-6.451-6.695-11.262-13.133-11.931v-30.08    c0-12.407,10.094-22.5,22.5-22.5s22.5,10.093,22.5,22.5v10c0,4.142,3.357,7.5,7.5,7.5s7.5-3.358,7.5-7.5v-10    c0-20.678-16.822-37.5-37.5-37.5c-20.678,0-37.5,16.822-37.5,37.5v30h-0.46c-7.102,0-13.272,5.051-14.674,12.014l-3.51,17.486    h-17.978c-22.274-29.19-57.075-46.5-93.878-46.5c-65.065,0-118,52.935-118,118s52.935,118,118,118    c36.803,0,71.604-17.31,93.878-46.5h88.244c22.274,29.19,57.075,46.5,93.878,46.5c17.952,0,35.195-3.93,51.248-11.681    c3.73-1.801,5.294-6.285,3.493-10.015c-1.799-3.729-6.281-5.294-10.015-3.493c-14.003,6.761-29.051,10.188-44.727,10.188    c-33.265,0-64.658-16.206-83.979-43.349c-1.407-1.977-3.684-3.151-6.11-3.151h-95.82c-2.427,0-4.703,1.174-6.11,3.151    c-19.322,27.144-50.715,43.35-83.98,43.35c-56.794,0-103-46.206-103-103s46.206-103,103-103c33.265,0,64.658,16.206,83.979,43.349    c1.407,1.977,3.684,3.151,6.11,3.151h95.82c2.427,0,4.703-1.174,6.11-3.151c19.321-27.144,50.715-43.349,83.979-43.349    c56.794,0,103,46.206,103,103c0,23.771-8.288,46.96-23.338,65.298c-2.628,3.202-2.162,7.928,1.04,10.555    c3.202,2.627,7.927,2.163,10.556-1.04C502.503,335.051,512,308.481,512,281.25C512,216.185,459.065,163.25,394,163.25z     M245.146,209.75l2.895-14.5l7.443-0.018c0.171,0.012,0.343,0.018,0.517,0.018c0.188,0,0.374-0.007,0.558-0.021l5.368-0.013    l2.918,14.534H245.146z" fill="#FFFFFF"/>
	</g>
</g>
<g>
	<g>
		<path d="M153.309,257.75H141.5v-11.81c0-8.376-6.814-15.19-15.19-15.19h-16.62c-8.376,0-15.19,6.814-15.19,15.19v11.81H82.69    c-8.376,0-15.19,6.814-15.19,15.19v16.62c0,8.376,6.814,15.19,15.19,15.19H94.5v11.81c0,8.376,6.814,15.19,15.19,15.19h16.619    c8.376,0,15.19-6.814,15.19-15.19v-11.81h11.81c8.376,0,15.19-6.814,15.19-15.19v-16.62    C168.499,264.564,161.685,257.75,153.309,257.75z M153.5,289.56c0,0.108-0.082,0.19-0.19,0.19H134c-4.143,0-7.5,3.358-7.5,7.5    v19.31c0,0.108-0.082,0.19-0.19,0.19h-16.62c-0.108,0-0.19-0.082-0.19-0.19v-19.31c0-4.142-3.357-7.5-7.5-7.5H82.69    c-0.108,0-0.19-0.082-0.19-0.19v-16.62c0-0.108,0.082-0.19,0.19-0.19H102c4.143,0,7.5-3.358,7.5-7.5v-19.31    c0-0.108,0.082-0.19,0.19-0.19h16.619c0.108,0,0.19,0.082,0.19,0.19v19.31c0,4.142,3.357,7.5,7.5,7.5h19.311    c0.108,0,0.19,0.082,0.19,0.19V289.56z" fill="#FFFFFF"/>
	</g>
</g>
<g>
	<g>
		<path d="M387,269.75c-11.855,0-21.5,9.645-21.5,21.5c0,11.855,9.645,21.5,21.5,21.5c11.855,0,21.5-9.645,21.5-21.5    C408.5,279.395,398.855,269.75,387,269.75z M387,297.75c-3.584,0-6.5-2.916-6.5-6.5c0-3.584,2.916-6.5,6.5-6.5    c3.584,0,6.5,2.916,6.5,6.5C393.5,294.834,390.584,297.75,387,297.75z" fill="#FFFFFF"/>
	</g>
</g>
<g>
	<g>
		<path d="M422,234.75c-11.855,0-21.5,9.645-21.5,21.5s9.645,21.5,21.5,21.5c11.855,0,21.5-9.645,21.5-21.5    C443.5,244.395,433.855,234.75,422,234.75z M422,262.75c-3.584,0-6.5-2.916-6.5-6.5c0-3.584,2.916-6.5,6.5-6.5    c3.584,0,6.5,2.916,6.5,6.5S425.584,262.75,422,262.75z" fill="#FFFFFF"/>
	</g>
</g>
<g>
	<g>
		<path d="M284.1,234.75h-56.2c-9.595,0-17.4,7.806-17.4,17.4v2.2c0,9.594,7.806,17.4,17.4,17.4h56.2c9.594,0,17.4-7.806,17.4-17.4    v-2.2C301.5,242.556,293.694,234.75,284.1,234.75z M286.5,254.35c0,1.323-1.077,2.4-2.4,2.4h-56.2c-1.323,0-2.4-1.077-2.4-2.4    v-2.2c0-1.323,1.077-2.4,2.4-2.4h56.2c1.323,0,2.4,1.077,2.4,2.4V254.35z" fill="#FFFFFF"/>
	</g>
</g>
<g>
	<g>
		<path d="M195.619,273.75c-4.143,0-7.5,3.358-7.5,7.5c0,38.664-31.455,70.12-70.119,70.12s-70.119-31.456-70.119-70.12    S79.336,211.13,118,211.13c4.143,0,7.5-3.358,7.5-7.5c0-4.142-3.357-7.5-7.5-7.5c-46.935,0-85.119,38.185-85.119,85.12    S71.065,366.37,118,366.37s85.119-38.185,85.119-85.12C203.119,277.108,199.762,273.75,195.619,273.75z" fill="#FFFFFF"/>
	</g>
</g>
<g>
	<g>
		<path d="M472.374,248.043c-0.016-0.038-0.033-0.076-0.049-0.115c-0.061-0.142-0.122-0.284-0.183-0.426    c-0.02-0.046-0.04-0.092-0.06-0.138c-0.056-0.129-0.113-0.258-0.17-0.387c-0.024-0.055-0.048-0.109-0.072-0.164    c-0.06-0.136-0.121-0.271-0.182-0.407c-0.018-0.041-0.036-0.081-0.055-0.121c-0.078-0.173-0.157-0.346-0.236-0.518    c-0.021-0.047-0.043-0.093-0.065-0.14c-0.059-0.128-0.119-0.256-0.179-0.384c-0.029-0.061-0.057-0.121-0.086-0.182    c-0.053-0.113-0.107-0.227-0.161-0.34c-0.031-0.065-0.062-0.129-0.093-0.194c-0.055-0.114-0.11-0.228-0.165-0.342    c-0.028-0.058-0.056-0.116-0.085-0.174c-0.06-0.124-0.121-0.247-0.182-0.37c-0.025-0.05-0.05-0.101-0.075-0.151    c-0.086-0.173-0.172-0.345-0.259-0.517c-0.003-0.006-0.007-0.013-0.01-0.019c-0.083-0.165-0.168-0.33-0.252-0.494    c-0.022-0.042-0.043-0.084-0.065-0.126c-0.069-0.134-0.139-0.268-0.209-0.402c-0.022-0.041-0.043-0.082-0.065-0.124    c-0.071-0.135-0.143-0.271-0.214-0.405c-0.021-0.039-0.041-0.077-0.062-0.116c-0.079-0.148-0.158-0.295-0.238-0.443    c-0.013-0.023-0.025-0.047-0.038-0.07c-0.192-0.353-0.386-0.705-0.583-1.055c-0.004-0.006-0.007-0.012-0.01-0.019    c-0.093-0.165-0.186-0.329-0.279-0.493c-0.013-0.023-0.026-0.046-0.039-0.068c-0.087-0.153-0.175-0.305-0.263-0.457    c-0.012-0.02-0.023-0.04-0.035-0.06c-0.406-0.698-0.821-1.39-1.245-2.075c-0.004-0.006-0.008-0.012-0.011-0.018    c-0.101-0.162-0.202-0.325-0.304-0.486l-0.027-0.042c-0.105-0.166-0.21-0.332-0.315-0.497c-0.001-0.001-0.001-0.002-0.002-0.003    c-0.324-0.506-0.653-1.009-0.987-1.507c-0.018-0.027-0.036-0.053-0.053-0.08c-0.091-0.135-0.182-0.27-0.273-0.405    c-0.023-0.034-0.046-0.067-0.069-0.101c-0.09-0.132-0.18-0.263-0.271-0.394c-0.021-0.031-0.042-0.061-0.063-0.092    c-0.108-0.156-0.216-0.311-0.325-0.466c-0.003-0.004-0.005-0.007-0.008-0.011c-0.109-0.155-0.219-0.31-0.328-0.464    c-0.04-0.056-0.08-0.112-0.121-0.168c-0.069-0.096-0.138-0.193-0.207-0.289c-0.051-0.07-0.101-0.139-0.152-0.209    c-0.057-0.078-0.114-0.156-0.17-0.234c-0.06-0.082-0.12-0.164-0.181-0.246c-0.044-0.06-0.089-0.121-0.134-0.181    c-0.069-0.094-0.139-0.187-0.208-0.28c-0.022-0.03-0.045-0.059-0.067-0.089c-9.754-13.011-23.158-23.192-38.688-28.919    c-0.16-0.059-0.322-0.112-0.484-0.16c-9.044-3.282-18.797-5.073-28.96-5.073c-4.143,0-7.5,3.358-7.5,7.5    c0,4.142,3.357,7.5,7.5,7.5c4.235,0,8.383,0.377,12.412,1.1l-52.715,52.716c-7.961,7.96-12.345,18.544-12.345,29.803    c0,11.259,4.384,21.843,12.344,29.803c7.962,7.962,18.547,12.347,29.804,12.347c11.257,0,21.842-4.385,29.804-12.347    l50.454-50.454c0.239,2.351,0.362,4.737,0.362,7.15c-0.003,38.663-31.458,70.119-70.122,70.119s-70.119-31.456-70.119-70.12    c0-4.142-3.357-7.5-7.5-7.5s-7.5,3.358-7.5,7.5c0,46.935,38.185,85.12,85.119,85.12s85.119-38.185,85.119-85.12    C479.119,269.475,476.715,258.252,472.374,248.043z M402.696,313.947c-5.128,5.128-11.946,7.953-19.196,7.953    s-14.068-2.825-19.197-7.953c-5.127-5.127-7.95-11.945-7.95-19.197c0-7.252,2.823-14.069,7.951-19.197l58.314-58.314    c16.657,7.476,29.888,21.27,36.625,38.313c0.002,0.006,0.005,0.012,0.007,0.018c0.04,0.102,0.08,0.204,0.12,0.306    c0.016,0.041,0.032,0.082,0.048,0.124c0.028,0.073,0.057,0.147,0.085,0.221c0.027,0.07,0.054,0.14,0.08,0.21    c0.018,0.047,0.036,0.094,0.053,0.142c0.037,0.098,0.074,0.197,0.111,0.295c0.003,0.007,0.005,0.015,0.008,0.022L402.696,313.947z    " fill="#FFFFFF"/>
	</g>
</g>
<g>
	<g>
		<path d="M250.304,292.947c-2.93-2.929-7.678-2.929-10.608,0l-19.5,19.5c-2.929,2.929-2.929,7.678,0,10.606    c1.465,1.464,3.385,2.197,5.304,2.197s3.839-0.732,5.304-2.197l19.5-19.5C253.233,300.624,253.233,295.875,250.304,292.947z" fill="#FFFFFF"/>
	</g>
</g>
<g>
	<g>
		<path d="M291.304,292.947c-2.93-2.929-7.678-2.929-10.608,0l-19.5,19.5c-2.929,2.929-2.929,7.678,0,10.606    c1.465,1.464,3.385,2.197,5.304,2.197c1.919,0,3.839-0.732,5.304-2.197l19.5-19.5    C294.233,300.624,294.233,295.875,291.304,292.947z" fill="#FFFFFF"/>
	</g>
</g>
<g>
</g>
<g>
</g>
<g>
</g>
<g>
</g>
<g>
</g>
<g>
</g>
<g>
</g>
<g>
</g>
<g>
</g>
<g>
</g>
<g>
</g>
<g>
</g>
<g>
</g>
<g>
</g>
<g>
</g>
</svg>
