<?xml version="1.0" encoding="iso-8859-1"?>
<!-- Generator: Adobe Illustrator 19.0.0, SVG Export Plug-In . SVG Version: 6.00 Build 0)  -->
<svg xmlns="http://www.w3.org/2000/svg" xmlns:xlink="http://www.w3.org/1999/xlink" version="1.1" id="Capa_1" x="0px" y="0px" viewBox="0 0 512 512" style="enable-background:new 0 0 512 512;" xml:space="preserve" width="512px" height="512px">
<g>
	<g>
		<path d="M219.235,138H74.595c-10.024,0-18.18,8.156-18.18,18.18v122.64c0,10.024,8.156,18.18,18.18,18.18h144.64    c10.024,0,18.18-8.156,18.18-18.18V156.18C237.415,146.156,229.259,138,219.235,138z M219.235,282h-43.964v-58.865    c0-4.142-3.358-7.5-7.5-7.5c-4.142,0-7.5,3.358-7.5,7.5V282H74.595c-1.753,0-3.18-1.427-3.18-3.18V156.18    c0-1.753,1.427-3.18,3.18-3.18h85.675v33.155c0,4.142,3.358,7.5,7.5,7.5c4.142,0,7.5-3.358,7.5-7.5V153h43.964    c1.753,0,3.18,1.427,3.18,3.18v122.64h0.001C222.415,280.573,220.988,282,219.235,282z" fill="#FFFFFF"/>
	</g>
</g>
<g>
	<g>
		<path d="M146.915,301c-30.051,0-54.5,24.449-54.5,54.5c0,30.051,24.449,54.5,54.5,54.5c30.051,0,54.5-24.449,54.5-54.5    C201.415,325.449,176.966,301,146.915,301z M146.915,395c-21.78,0-39.5-17.72-39.5-39.5c0-21.78,17.72-39.5,39.5-39.5    c21.78,0,39.5,17.72,39.5,39.5C186.415,377.28,168.695,395,146.915,395z" fill="#FFFFFF"/>
	</g>
</g>
<g>
	<g>
		<path d="M146.915,329c-14.612,0-26.5,11.888-26.5,26.5s11.888,26.5,26.5,26.5s26.5-11.888,26.5-26.5S161.527,329,146.915,329z     M146.915,367c-6.341,0-11.5-5.159-11.5-11.5s5.159-11.5,11.5-11.5s11.5,5.159,11.5,11.5S153.256,367,146.915,367z" fill="#FFFFFF"/>
	</g>
</g>
<g>
	<g>
		<circle cx="355.42" cy="111" r="10" fill="#FFFFFF"/>
	</g>
</g>
<g>
	<g>
		<path d="M479.762,201.616C473.013,183.304,454.589,171,433.915,171c-26.743,0-48.5,20.411-48.5,45.5    c0,14.257,7.026,27.003,18,35.352v46.218c0,8.086,6.113,14.784,14,15.797v3.726c0,16.766-13.641,30.407-30.406,30.407h-24.594    V207.883c7.877-0.956,14-7.683,14-15.814v-37.605c15.32-3.833,27.999-14.572,33.35-29.088c0.544-1.482,0.82-3.062,0.82-4.697    v-20.36c0-1.635-0.276-3.215-0.823-4.704C403.013,77.304,384.589,65,363.915,65c-26.743,0-48.5,20.411-48.5,45.5    c0,14.257,7.026,27.003,18,35.352v46.218c0,8.131,6.123,14.858,14,15.814V470.5c0,14.612-11.888,26.5-26.5,26.5    s-26.5-11.888-26.5-26.5v-429c0-22.883-18.617-41.5-41.5-41.5s-41.5,18.617-41.5,41.5v48.944c-7.442,1.746-13,8.439-13,16.406V115    H71.325c-22.006,0-39.91,17.904-39.91,39.91v236.18c0,22.006,17.904,39.91,39.91,39.91h151.18c22.006,0,39.91-17.904,39.91-39.91    V154.91c0-15.169-8.507-28.388-21-35.138V106.85c0-8.666-6.576-15.825-15-16.749V41.5c0-14.612,11.888-26.5,26.5-26.5    c14.612,0,26.5,11.888,26.5,26.5v429c0,22.883,18.617,41.5,41.5,41.5s41.5-18.617,41.5-41.5V363h24.594    c25.037,0,45.406-20.37,45.406-45.407v-3.67c8.127-0.789,14.5-7.598,14.5-15.854v-37.733c15.096-3.94,27.558-14.602,32.85-28.96    c0.544-1.482,0.82-3.062,0.82-4.697v-20.36C480.585,204.685,480.309,203.104,479.762,201.616z M247.415,154.91v236.18    c0,13.735-11.175,24.91-24.91,24.91H71.325c-13.735,0-24.91-11.175-24.91-24.91V154.91c0-13.735,11.175-24.91,24.91-24.91h151.18    C236.24,130,247.415,141.175,247.415,154.91z M226.415,106.85V115h-13v-8.15c0-1.02,0.83-1.85,1.85-1.85h9.3    C225.585,105,226.415,105.83,226.415,106.85z M361.415,192.07c0,0.504-0.426,0.93-0.93,0.93h-11.141    c-0.504,0-0.93-0.426-0.93-0.93v-38.452c4.117,1.305,8.478,2.106,13.001,2.322V192.07z M330.415,110.5    c0-16.818,15.028-30.5,33.5-30.5c14.314,0,27.003,8.241,31.67,20.53v19.94c-4.671,12.292-17.357,20.53-31.67,20.53    C345.443,141,330.415,127.318,330.415,110.5z M431.915,298.07c0,0.504-0.494,0.93-1.08,0.93h-11.34c-0.586,0-1.08-0.426-1.08-0.93    v-38.452c4.267,1.353,8.798,2.163,13.5,2.343V298.07z M465.585,226.47c-4.671,12.292-17.357,20.53-31.67,20.53    c-18.472,0-33.5-13.682-33.5-30.5s15.028-30.5,33.5-30.5c14.314,0,27.003,8.241,31.67,20.53V226.47z" fill="#FFFFFF"/>
	</g>
</g>
<g>
	<g>
		<circle cx="425.42" cy="217" r="10" fill="#FFFFFF"/>
	</g>
</g>
<g>
	<g>
		<path d="M105.915,171h-20c-4.142,0-7.5,3.358-7.5,7.5c0,4.142,3.358,7.5,7.5,7.5h20c4.142,0,7.5-3.358,7.5-7.5    C113.415,174.358,110.057,171,105.915,171z" fill="#FFFFFF"/>
	</g>
</g>
<g>
	<g>
		<path d="M145.915,171h-18c-4.142,0-7.5,3.358-7.5,7.5c0,4.142,3.358,7.5,7.5,7.5h18c4.142,0,7.5-3.358,7.5-7.5    C153.415,174.358,150.057,171,145.915,171z" fill="#FFFFFF"/>
	</g>
</g>
<g>
	<g>
		<path d="M105.915,228h-20c-4.142,0-7.5,3.358-7.5,7.5c0,4.142,3.358,7.5,7.5,7.5h20c4.142,0,7.5-3.358,7.5-7.5    C113.415,231.358,110.057,228,105.915,228z" fill="#FFFFFF"/>
	</g>
</g>
<g>
	<g>
		<path d="M145.915,228h-18c-4.142,0-7.5,3.358-7.5,7.5c0,4.142,3.358,7.5,7.5,7.5h18c4.142,0,7.5-3.358,7.5-7.5    C153.415,231.358,150.057,228,145.915,228z" fill="#FFFFFF"/>
	</g>
</g>
<g>
	<g>
		<path d="M145.915,200h-60c-4.142,0-7.5,3.358-7.5,7.5c0,4.142,3.358,7.5,7.5,7.5h60c4.142,0,7.5-3.358,7.5-7.5    C153.415,203.358,150.057,200,145.915,200z" fill="#FFFFFF"/>
	</g>
</g>
<g>
	<g>
		<path d="M145.915,254h-60c-4.142,0-7.5,3.358-7.5,7.5c0,4.142,3.358,7.5,7.5,7.5h60c4.142,0,7.5-3.358,7.5-7.5    C153.415,257.358,150.057,254,145.915,254z" fill="#FFFFFF"/>
	</g>
</g>
<g>
</g>
<g>
</g>
<g>
</g>
<g>
</g>
<g>
</g>
<g>
</g>
<g>
</g>
<g>
</g>
<g>
</g>
<g>
</g>
<g>
</g>
<g>
</g>
<g>
</g>
<g>
</g>
<g>
</g>
</svg>
