<?xml version="1.0" encoding="iso-8859-1"?>
<!-- Generator: Adobe Illustrator 19.0.0, SVG Export Plug-In . SVG Version: 6.00 Build 0)  -->
<svg xmlns="http://www.w3.org/2000/svg" xmlns:xlink="http://www.w3.org/1999/xlink" version="1.1" id="Capa_1" x="0px" y="0px" viewBox="0 0 512 512" style="enable-background:new 0 0 512 512;" xml:space="preserve" width="512px" height="512px">
<g>
	<g>
		<path d="M367.475,157.484h-47.353c-4.143,0-7.501,3.359-7.501,7.501c0,4.143,3.358,7.501,7.501,7.501h47.353    c4.143,0,7.501-3.359,7.501-7.501C374.977,160.842,371.618,157.484,367.475,157.484z" fill="#FFFFFF"/>
	</g>
</g>
<g>
	<g>
		<path d="M429.485,157.484h-24.004c-4.143,0-7.501,3.359-7.501,7.501c0,4.143,3.359,7.501,7.501,7.501h24.004    c4.143,0,7.501-3.359,7.501-7.501C436.987,160.842,433.628,157.484,429.485,157.484z" fill="#FFFFFF"/>
	</g>
</g>
<g>
	<g>
		<path d="M504.499,157.484H456.49c-4.143,0-7.501,3.359-7.501,7.501c0,4.143,3.359,7.501,7.501,7.501h48.009    c4.143,0,7.501-3.359,7.501-7.501C512,160.842,508.641,157.484,504.499,157.484z" fill="#FFFFFF"/>
	</g>
</g>
<g>
	<g>
		<path d="M413.483,219.495H289.461c-4.143,0-7.501,3.359-7.501,7.501c0,4.143,3.359,7.501,7.501,7.501h124.022    c4.143,0,7.501-3.359,7.501-7.501C420.984,222.853,417.625,219.495,413.483,219.495z" fill="#FFFFFF"/>
	</g>
</g>
<g>
	<g>
		<path d="M504.499,219.495h-62.011c-4.143,0-7.501,3.359-7.501,7.501c0,4.143,3.359,7.501,7.501,7.501h62.011    c4.143,0,7.501-3.359,7.501-7.501C512,222.853,508.641,219.495,504.499,219.495z" fill="#FFFFFF"/>
	</g>
</g>
<g>
	<g>
		<path d="M325.467,188.489h-50.642l0.009-7.998c0.003-2.687-0.072-5.355-0.222-8.004h15.096c4.143,0,7.501-3.359,7.501-7.501    c0-4.143-3.359-7.501-7.501-7.501h-16.775c-10.904-64.848-67.407-114.444-135.318-114.52h-0.158    c-36.625,0-71.08,14.247-97.029,40.125c-25.973,25.928-40.299,60.409-40.34,97.094L0,258.172    c-0.031,27.926,10.815,54.194,30.542,73.964c18.813,18.856,43.555,29.648,70.03,30.633v84.401c0,12.057,9.81,21.866,21.866,21.866    h29.995c12.057,0,21.866-9.809,21.866-21.866v-84.332c26.342-1.01,50.969-11.735,69.739-30.463    c19.772-19.727,30.676-45.97,30.709-73.896l0.062-54.99h50.657v0.002c4.143,0,7.501-3.359,7.501-7.501    C332.968,191.848,329.61,188.489,325.467,188.489z M100.572,347.756c-22.46-0.977-43.431-10.201-59.41-26.216    c-6.224-6.238-11.415-13.23-15.49-20.771h74.899V347.756z M159.297,447.172c0,3.785-3.08,6.864-6.864,6.864h-2.98v-53.483    c0-4.143-3.359-7.501-7.501-7.501c-4.143,0-7.501,3.359-7.501,7.501v53.483h-12.013c-3.785,0-6.863-3.08-6.863-6.863V323.755    c5.366,4.088,11.844,6.731,18.877,7.36v43.464c0,4.143,3.359,7.501,7.501,7.501s7.501-3.359,7.501-7.501v-45.244    c3.569-1.216,6.879-2.978,9.843-5.193V447.172z M116.785,300.77h41.379c-2.857,9.101-10.822,15.489-20.447,15.489    C128.037,316.259,119.787,309.775,116.785,300.77z M259.788,219.495h-79.847c-4.143,0-7.501,3.359-7.501,7.501    c0,4.143,3.359,7.501,7.501,7.501h79.83l-0.027,23.967c-0.011,9.408-1.462,18.592-4.251,27.303h-27.641    c-4.143,0-7.501,3.359-7.501,7.501c0,4.143,3.359,7.501,7.501,7.501h21.261c-4.112,7.627-9.365,14.695-15.672,20.987    c-15.938,15.902-36.802,25.065-59.143,26.068V300.77h20.01c4.143,0,7.501-3.359,7.501-7.501c0-4.143-3.359-7.501-7.501-7.501    H19.276c-2.823-8.795-4.284-18.074-4.274-27.578l0.088-77.991c0.037-32.679,12.799-63.396,35.934-86.49    c23.116-23.053,53.805-35.742,86.433-35.742h0.141c32.685,0.037,63.4,12.8,86.487,35.94    c17.578,17.618,29.131,39.643,33.628,63.577h-77.773c-4.143,0-7.501,3.359-7.501,7.501c0,4.143,3.359,7.501,7.501,7.501h79.644    c0.166,2.648,0.249,5.311,0.246,7.987L259.788,219.495z" fill="#FFFFFF"/>
	</g>
</g>
<g>
	<g>
		<path d="M463.491,188.489h-96.017c-4.143,0-7.501,3.359-7.501,7.501c0,4.143,3.359,7.501,7.501,7.501h96.017    c4.143,0,7.501-3.359,7.501-7.501C470.993,191.848,467.634,188.489,463.491,188.489z" fill="#FFFFFF"/>
	</g>
</g>
<g>
	<g>
		<path d="M208.446,188.489h-12.002c-4.143,0-7.501,3.359-7.501,7.501c0,4.143,3.359,7.501,7.501,7.501h12.002    c4.143,0,7.501-3.359,7.501-7.501C215.947,191.848,212.589,188.489,208.446,188.489z" fill="#FFFFFF"/>
	</g>
</g>
<g>
	<g>
		<path d="M127.432,151.482c-24.542,0-44.508,19.966-44.508,44.508s19.966,44.508,44.508,44.508s44.508-19.966,44.508-44.508    S151.974,151.482,127.432,151.482z M127.432,225.496c-16.27,0-29.505-13.235-29.505-29.505s13.235-29.505,29.505-29.505    s29.505,13.235,29.505,29.505S143.702,225.496,127.432,225.496z" fill="#FFFFFF"/>
	</g>
</g>
<g>
</g>
<g>
</g>
<g>
</g>
<g>
</g>
<g>
</g>
<g>
</g>
<g>
</g>
<g>
</g>
<g>
</g>
<g>
</g>
<g>
</g>
<g>
</g>
<g>
</g>
<g>
</g>
<g>
</g>
</svg>
