<?xml version="1.0" encoding="iso-8859-1"?>
<!-- Generator: Adobe Illustrator 19.0.0, SVG Export Plug-In . SVG Version: 6.00 Build 0)  -->
<svg xmlns="http://www.w3.org/2000/svg" xmlns:xlink="http://www.w3.org/1999/xlink" version="1.1" id="Capa_1" x="0px" y="0px" viewBox="0 0 512 512" style="enable-background:new 0 0 512 512;" xml:space="preserve" width="512px" height="512px">
<g>
	<g>
		<path d="M282.742,401.244h-35.449c-8.735,0-15.841,7.106-15.841,15.841v15.41c0,8.735,7.106,15.841,15.841,15.841h35.45    c8.735,0,15.841-7.106,15.841-15.841v-15.41C298.583,408.35,291.477,401.244,282.742,401.244z M283.555,432.495L283.555,432.495    c-0.001,0.448-0.365,0.812-0.813,0.812h-35.449c-0.447,0-0.812-0.364-0.812-0.812v-15.41c0-0.448,0.364-0.812,0.812-0.812h35.45    c0.447,0,0.812,0.364,0.812,0.812V432.495z" fill="#FFFFFF"/>
	</g>
</g>
<g>
	<g>
		<g>
			<path d="M244.128,189.834C244.193,189.834,244.064,189.832,244.128,189.834L244.128,189.834z" fill="#FFFFFF"/>
			<path d="M434.479,316.077h-44.717v-71.455c0-15.64-6.587-29.77-17.132-39.763h24.747c14.033,0,25.45-11.417,25.45-25.45v-40.269     c0-14.038-11.417-25.46-25.45-25.46H132.659c-14.033,0-25.45,11.421-25.45,25.46v40.269c0,14.032,11.417,25.45,25.45,25.45     h24.747c-10.546,9.993-17.132,24.122-17.132,39.763v71.455H95.557c-12.359,0-22.414,10.055-22.414,22.414v7.735     c0,7.133,5.807,12.935,12.945,12.935h0.08v43.876c0,16.691,13.579,30.269,30.269,30.269h25.572     c6.101,23.598,27.573,41.08,53.051,41.08h139.914c25.478,0,46.95-17.482,53.051-41.08h25.572     c16.691,0,30.269-13.579,30.269-30.269v-43.876h0.08c7.138,0,12.945-5.803,12.945-12.935v-7.735     C456.892,326.132,446.838,316.077,434.479,316.077z M372.728,128.711h24.648c5.745,0,10.42,4.679,10.42,10.43v40.269     c0,5.745-4.675,10.42-10.42,10.42h-24.648V128.711z M140.274,418.277h-23.837c-8.403,0-15.24-6.836-15.24-15.24v-42.874h39.076     V418.277z M140.274,344.132H88.172v-5.641c0-4.072,3.313-7.384,7.384-7.384h44.717V344.132z M340.665,128.711h17.033v61.119     h-17.033V128.711z M175.342,128.711h17.033v61.119h-17.033V128.711z M132.659,189.831c-5.745,0-10.42-4.675-10.42-10.42v-40.269     c0-5.751,4.675-10.43,10.42-10.43h27.654v61.119H132.659z M374.732,419.599c0,21.923-17.835,39.758-39.758,39.758H195.061     c-21.923,0-39.758-17.835-39.758-39.758V348.35c7.281,7.837,16.785,13.626,27.554,16.253v38.543c0,1.991,0.791,3.902,2.197,5.31     l7.558,7.569c2.944,2.943,6.834,4.43,10.733,4.43c3.551,0,7.107-1.233,9.957-3.724l9.068-7.925     c1.633-1.427,2.569-3.49,2.569-5.658v-36.969h82.16v36.969c0,2.168,0.937,4.231,2.569,5.658l9.068,7.925     c2.85,2.491,6.406,3.724,9.955,3.724c3.901,0,7.793-1.488,10.738-4.433l7.555-7.565c1.407-1.409,2.197-3.319,2.197-5.31v-39.064     c9.992-2.818,18.752-8.308,25.55-15.593V419.599z M189.821,313.071c-0.248,0-0.451-0.202-0.451-0.451v-9.118     c0-0.248,0.202-0.451,0.451-0.451h28.155c0.249,0,0.451,0.202,0.451,0.451v9.118c0,0.248-0.202,0.451-0.451,0.451H189.821z      M209.91,328.602v71.133l-6.498,5.68c-0.042,0.036-0.114,0.04-0.168-0.013l-5.357-5.365v-71.435H209.91z M314.063,313.071     c-0.248,0-0.451-0.202-0.451-0.451v-9.118c0-0.248,0.202-0.451,0.451-0.451h28.155c0.248,0,0.451,0.202,0.451,0.451v9.118     c0,0.248-0.202,0.451-0.451,0.451H314.063z M334.153,328.602v71.435l-5.354,5.362c-0.058,0.056-0.13,0.051-0.171,0.016     l-6.498-5.68v-71.133H334.153z M374.733,310.406c0,16.879-10.375,31.736-25.55,37.822v-21.785     c5.048-2.553,8.517-7.791,8.517-13.824v-9.118c0-8.536-6.945-15.48-15.48-15.48h-28.155c-8.537,0-15.48,6.945-15.48,15.48v9.118     c0,6.033,3.469,11.27,8.517,13.824v24.704h-82.16v-24.704c5.048-2.553,8.517-7.791,8.517-13.824v-9.118     c0-8.536-6.945-15.48-15.48-15.48h-28.155c-8.537,0-15.48,6.945-15.48,15.48v9.118c0,6.033,3.469,11.27,8.517,13.824v22.515     c-16.116-5.552-27.554-21.024-27.554-38.553v-65.782h-0.001c0-21.924,17.836-39.76,39.76-39.76h49.065     c4.151,0,7.515-3.365,7.515-7.515s-3.364-7.515-7.515-7.515l-36.723-0.003v-61.119h118.231v61.119l-30.173,0.002     c-4.151,0-7.515,3.365-7.515,7.515c0,4.15,3.364,7.515,7.515,7.515h39.51c21.924,0,39.76,17.836,39.76,39.76V310.406z      M428.838,403.037c0,8.403-6.836,15.24-15.24,15.24h-23.837v-58.113h39.076V403.037z M441.863,344.132h-52.102v-13.025h44.717     c4.071,0,7.384,3.312,7.384,7.384V344.132z" fill="#FFFFFF"/>
		</g>
	</g>
</g>
<g>
	<g>
		<path d="M486.38,0h-7.874c-9.155,0-16.603,7.448-16.603,16.602l-0.004,68.609l-40.011-44.421    c-6.126-6.802-16.644-7.352-23.454-1.221l-5.846,5.275c-6.799,6.123-7.349,16.637-1.225,23.438l70.541,78.314v348.491    c0,9.326,7.587,16.913,16.913,16.913h7.254c9.326,0,16.913-7.587,16.913-16.913V16.602C502.982,7.448,495.534,0,486.38,0z     M486.069,496.971h-7.254c-1.038,0-1.884-0.845-1.884-1.884V143.711c0-1.858-0.688-3.649-1.932-5.03l-72.471-80.457    c-0.578-0.641-0.525-1.634,0.121-2.217l5.845-5.274c0.301-0.271,0.677-0.404,1.053-0.404c0.432,0,0.86,0.175,1.171,0.52    l40.188,44.617c4.172,4.632,10.628,6.179,16.444,3.947c5.819-2.234,9.58-7.708,9.58-13.945V16.602    c0-0.868,0.705-1.573,1.573-1.573h7.874c0.868,0,1.573,0.705,1.573,1.573v478.485h0.001    C487.953,496.126,487.107,496.971,486.069,496.971z" fill="#FFFFFF"/>
	</g>
</g>
<g>
	<g>
		<path d="M85.166,195.435v-15.581c4.219-2.756,7.014-7.522,7.014-12.927v-7.214c0-8.509-6.922-15.43-15.43-15.43H56.51    c-8.509,0-15.43,6.922-15.43,15.43v7.214c0,5.406,2.794,10.171,7.014,12.927v15.581c-22.702,7.734-39.076,29.267-39.076,54.554    c0,31.768,25.844,57.612,57.612,57.612s57.613-25.844,57.613-57.612C124.243,224.702,107.869,203.169,85.166,195.435z     M56.11,159.712c0-0.217,0.184-0.401,0.401-0.401h20.24c0.217,0,0.401,0.183,0.401,0.401v7.214c0,0.217-0.184,0.401-0.401,0.401    H56.51c-0.217,0-0.401-0.183-0.401-0.401V159.712z M70.137,182.356v10.02h-7.014v-10.02H70.137z M66.63,292.571    c-23.481,0-42.583-19.102-42.583-42.583c0-23.481,19.102-42.583,42.583-42.583c23.481,0,42.583,19.102,42.583,42.583    C109.213,273.469,90.111,292.571,66.63,292.571z" fill="#FFFFFF"/>
	</g>
</g>
<g>
	<g>
		<path d="M89.979,226.639c-1.705-1.705-4.123-2.489-6.51-2.104l-31.061,5.01c-3.198,0.516-5.706,3.024-6.222,6.222l-5.01,31.061    c-0.385,2.382,0.399,4.804,2.105,6.511c1.42,1.42,3.336,2.2,5.313,2.2c0.397,0,0.798-0.031,1.196-0.096l31.061-5.01    c3.198-0.516,5.706-3.024,6.222-6.222l5.01-31.061C92.469,230.768,91.685,228.345,89.979,226.639z M73.101,256.459l-15.43,2.489    l2.489-15.43l15.43-2.489L73.101,256.459z" fill="#FFFFFF"/>
	</g>
</g>
<g>
</g>
<g>
</g>
<g>
</g>
<g>
</g>
<g>
</g>
<g>
</g>
<g>
</g>
<g>
</g>
<g>
</g>
<g>
</g>
<g>
</g>
<g>
</g>
<g>
</g>
<g>
</g>
<g>
</g>
</svg>
